<svg xmlns="http://www.w3.org/2000/svg" xmlns:xlink="http://www.w3.org/1999/xlink" width="500" zoomAndPan="magnify" viewBox="0 0 375 374.999991" height="500" preserveAspectRatio="xMidYMid meet" version="1.0"><defs><clipPath id="904b49ed88"><path d="M 99 243 L 375 243 L 375 366.75 L 99 366.75 Z M 99 243 " clip-rule="nonzero"/></clipPath><clipPath id="14df56a094"><path d="M 165 243 L 320 243 L 320 366.75 L 165 366.75 Z M 165 243 " clip-rule="nonzero"/></clipPath><clipPath id="8397ebe602"><path d="M 0 242 L 276 242 L 276 366.75 L 0 366.75 Z M 0 242 " clip-rule="nonzero"/></clipPath></defs><g clip-path="url(#904b49ed88)"><path fill="#63012e" d="M 374.855469 366.71875 L 275.375 366.71875 L 265.480469 362.902344 C 265.480469 362.902344 239.398438 366.070312 239.570312 366.71875 L 205.035156 366.71875 L 198.890625 362.902344 L 165.472656 366.71875 L 99.761719 366.71875 L 182.589844 243.210938 L 319.449219 243.210938 Z M 374.855469 366.71875 " fill-opacity="1" fill-rule="nonzero"/></g><path fill="#ffd357" d="M 204.144531 365.808594 L 201.929688 365.820312 L 191.25 365.941406 L 191.25 354.859375 L 213.644531 321.460938 L 222.109375 339.011719 Z M 174.351562 334.886719 L 165.886719 317.339844 L 143.492188 350.734375 L 143.492188 362.902344 L 155.660156 362.902344 L 155.660156 362.753906 Z M 174.351562 334.886719 " fill-opacity="1" fill-rule="nonzero"/><path fill="#63012e" d="M 203.597656 355.195312 L 203.695312 365.941406 L 203.136719 365.695312 L 203.039062 355.144531 L 191.25 355.144531 L 191.25 354.582031 L 203.171875 354.582031 L 218.550781 331.644531 L 219.015625 331.960938 Z M 170.789062 327.515625 L 155.40625 350.453125 L 143.484375 350.453125 L 143.484375 351.011719 L 155.273438 351.011719 L 155.371094 362.902344 L 155.929688 362.894531 L 155.832031 350.8125 L 171.25 327.824219 Z M 170.789062 327.515625 " fill-opacity="1" fill-rule="nonzero"/><g clip-path="url(#14df56a094)"><path fill="#b83b66" d="M 319.726562 366.71875 L 319.164062 366.71875 L 319.164062 243.21875 L 319.726562 243.21875 Z M 174.335938 354.109375 C 174.09375 358.742188 165.472656 366.726562 165.472656 366.726562 L 205.035156 366.726562 C 205.035156 366.726562 204.707031 359.167969 198.007812 349.972656 C 191.308594 340.769531 174.335938 354.109375 174.335938 354.109375 Z M 174.335938 354.109375 " fill-opacity="1" fill-rule="nonzero"/></g><g clip-path="url(#8397ebe602)"><path fill="#f4e6ec" d="M 168.46875 245.089844 C 183.636719 250.476562 186.300781 263.355469 184.5 264.621094 C 182.695312 265.882812 145.191406 266.371094 145.191406 266.371094 L 144.242188 245.925781 C 144.242188 245.917969 153.296875 239.699219 168.46875 245.089844 Z M 20.957031 286.320312 C 16.917969 293.019531 0.152344 296.355469 0.585938 310.949219 C 0.585938 310.949219 24.101562 315.855469 43.53125 310.074219 L 48.558594 287.78125 L 34.945312 281.53125 Z M 197.714844 276.503906 C 197.460938 276.96875 173.8125 268.765625 163.9375 269.976562 C 154.066406 271.191406 145.414062 281.105469 152.324219 304.453125 C 159.230469 327.800781 168.9375 356.085938 168.9375 356.085938 C 168.9375 356.085938 191.902344 360.367188 203.777344 350.59375 L 198.015625 332.722656 C 198.015625 332.722656 220.363281 341.941406 231.859375 337.769531 L 239.574219 366.71875 L 275.382812 366.71875 C 275.382812 366.71875 269.859375 340.828125 268.1875 335.566406 C 266.519531 330.308594 267.613281 306.792969 248.976562 285.683594 C 230.339844 264.574219 197.714844 276.503906 197.714844 276.503906 Z M 197.714844 276.503906 " fill-opacity="1" fill-rule="nonzero"/></g><path fill="#b83b66" d="M 30.214844 247.324219 L 22.671875 246.105469 L 57.863281 134.40625 L 111.175781 136.6875 C 111.175781 136.6875 156.71875 165.8125 163.933594 171.117188 C 171.140625 176.414062 168.398438 214.46875 168.398438 214.46875 L 154.140625 222.117188 L 142.722656 215.074219 L 138.3125 214.234375 L 137.347656 197.359375 L 93.285156 171.867188 L 67.332031 251.246094 L 61.859375 250.777344 C 61.859375 250.777344 49.714844 268.976562 41.496094 261.042969 C 33.269531 253.117188 30.214844 247.324219 30.214844 247.324219 Z M 30.214844 247.324219 " fill-opacity="1" fill-rule="nonzero"/><path fill="#ffd357" d="M 168.398438 214.460938 L 168.46875 245.082031 L 144.242188 245.917969 L 142.722656 215.058594 Z M 168.398438 214.460938 " fill-opacity="1" fill-rule="nonzero"/><path fill="#b83b66" d="M 72.972656 48.003906 C 83.398438 35.941406 88.292969 36.339844 92.753906 23.300781 C 97.214844 10.273438 102.378906 3.757812 109.445312 1.863281 C 116.511719 -0.03125 121.179688 3.832031 121.179688 3.832031 C 121.179688 3.832031 125.507812 3.066406 129.023438 11.425781 C 132.542969 19.777344 128.808594 31.714844 129.894531 39.167969 C 130.976562 46.621094 134.683594 61.796875 134.683594 61.796875 C 134.683594 61.796875 121.226562 75.8125 103.03125 69.429688 C 84.835938 63.046875 72.972656 48.003906 72.972656 48.003906 Z M 186.28125 255.9375 C 189.117188 260.570312 197.613281 284.667969 197.613281 284.667969 C 221 302.976562 248.960938 285.691406 248.960938 285.691406 L 236.515625 247.453125 C 251.777344 252.234375 261.394531 244.96875 257.621094 233.296875 C 253.847656 221.621094 231.71875 205.433594 231.71875 205.433594 C 231.71875 205.433594 207.101562 207.84375 201.621094 205.945312 C 196.144531 204.042969 193.246094 208.023438 193.246094 208.023438 C 170.054688 201.625 162.351562 184.570312 162.351562 184.570312 L 144.890625 187.070312 C 146.90625 204.542969 155.46875 222.855469 176.386719 232.597656 C 177.230469 242.417969 181.535156 248.179688 186.28125 255.9375 Z M 186.28125 255.9375 " fill-opacity="1" fill-rule="nonzero"/><path fill="#63012e" d="M 140.460938 104.824219 C 139.816406 102.339844 128.898438 60.621094 125.714844 53.730469 C 122.535156 46.84375 108.667969 40.8125 108.667969 40.8125 L 93.285156 40.15625 C 93.285156 40.15625 74.933594 40.417969 69.285156 50.191406 C 63.632812 59.960938 57.855469 134.414062 57.855469 134.414062 C 57.855469 134.414062 90.519531 145.367188 111.167969 136.695312 L 111.734375 133.214844 C 111.734375 133.214844 130.085938 147.117188 132.835938 148.839844 C 135.582031 150.554688 157.277344 140.039062 157.277344 140.039062 C 157.277344 140.039062 141.105469 107.300781 140.460938 104.824219 Z M 114.304688 103.621094 L 114.910156 96.546875 L 121.113281 111.746094 Z M 189.859375 184.828125 C 188.519531 171.984375 193.921875 168.191406 193.921875 168.191406 C 193.921875 168.191406 204.714844 162.503906 214.996094 171.4375 C 223.453125 178.789062 225.054688 191.578125 226.753906 198.199219 C 228.453125 204.820312 240.070312 208.144531 239.792969 215.058594 C 233.003906 225.085938 206.449219 229.742188 206.449219 229.742188 C 199.039062 220.886719 205.082031 210.128906 201.636719 205.9375 C 197.917969 205.34375 191.199219 197.667969 189.859375 184.828125 Z M 189.859375 184.828125 " fill-opacity="1" fill-rule="nonzero"/><path fill="#ffd357" d="M 62.136719 250.777344 C 62.421875 250.789062 48.835938 287.78125 48.835938 287.78125 L 21.226562 286.3125 C 21.226562 286.3125 30.734375 247.378906 30.492188 247.324219 C 30.492188 247.324219 61.851562 250.761719 62.136719 250.777344 Z M 196.363281 193.019531 C 200.597656 189.9375 199.574219 185.476562 197.613281 183.515625 C 195.652344 181.554688 190.851562 175.53125 193.914062 168.191406 C 193.871094 168.386719 187.722656 170.003906 184.5 180.253906 C 184.222656 181.136719 180.71875 185.941406 180.785156 187.058594 C 180.855469 188.179688 182.917969 188.492188 182.917969 188.492188 C 182.917969 188.492188 181.128906 201.605469 190.480469 201.246094 L 193.261719 208.015625 C 193.261719 208.015625 198.957031 208.355469 201.636719 205.9375 C 199.476562 203.429688 195.171875 199.929688 196.363281 193.019531 Z M 161.761719 153.898438 C 164.261719 152.804688 161.769531 149.960938 161.769531 149.960938 C 162.40625 149.804688 162.914062 148.601562 161.695312 147.164062 C 161.695312 147.164062 160.699219 142.792969 159.375 140.953125 C 158.050781 139.113281 156.785156 140.453125 156.785156 140.453125 C 156.785156 140.453125 153.242188 138.46875 150.9375 137.675781 C 148.625 136.882812 139.78125 135.316406 139.78125 135.316406 L 132.835938 148.832031 C 135.3125 150.710938 146.917969 156.578125 146.917969 156.578125 C 146.800781 156.921875 145.316406 158.875 146.425781 161.121094 C 147.464844 162.78125 143.625 176.191406 144.90625 187.0625 C 148.777344 188.125 162.953125 186.324219 162.367188 184.566406 C 159.042969 174.542969 160.921875 163.425781 160.921875 163.425781 C 160.921875 163.425781 162.1875 163.621094 162.59375 163.125 C 162.59375 163.125 163.820312 162.003906 163.925781 159.757812 C 164.027344 157.511719 162.847656 156.203125 162.847656 156.203125 C 162.742188 154.632812 161.761719 153.898438 161.761719 153.898438 Z M 108.945312 42.691406 C 116.398438 45.96875 126.164062 34.078125 128.058594 28.03125 C 129.722656 22.726562 125.632812 17.789062 124.609375 16.65625 C 124.632812 15.648438 124.578125 13.011719 123.589844 10.761719 L 123.246094 10.910156 C 124.152344 12.96875 124.242188 15.414062 124.234375 16.492188 C 113.367188 22.652344 107.148438 16.90625 106.585938 16.464844 C 106.023438 16.015625 104.960938 14.253906 103.078125 15.226562 C 100.113281 17.113281 101.910156 22.945312 101.910156 22.945312 C 102.1875 38.6875 93.5625 40.148438 93.5625 40.148438 C 95.554688 47.757812 106.570312 51.992188 108.945312 42.691406 Z M 114.902344 96.523438 L 114.355469 102.914062 L 109.675781 97.332031 C 106.390625 93.414062 95.59375 66.433594 95.480469 66.160156 L 94.957031 66.367188 C 95.40625 67.484375 105.90625 93.703125 109.242188 97.691406 L 140.144531 134.585938 L 140.582031 134.226562 L 114.863281 103.53125 L 115.457031 96.578125 C 115.582031 95.304688 116.234375 93.839844 116.980469 92.140625 C 118.375 88.996094 120.109375 85.089844 119.386719 80.242188 C 118.546875 76.664062 119.011719 73.246094 119.019531 73.207031 L 118.464844 73.132812 C 118.441406 73.273438 117.984375 76.6875 118.839844 80.347656 C 119.535156 85.015625 117.835938 88.839844 116.472656 91.914062 C 115.703125 93.652344 115.035156 95.15625 114.902344 96.523438 Z M 85.609375 106.710938 C 79.222656 97.96875 69.367188 71.742188 69.285156 71.5 L 68.753906 71.671875 C 68.828125 71.90625 78.714844 98.222656 85.152344 107.039062 C 91.527344 115.773438 111.632812 133.246094 111.832031 133.425781 L 112.199219 133 C 111.996094 132.828125 91.945312 115.390625 85.609375 106.710938 Z M 85.609375 106.710938 " fill-opacity="1" fill-rule="nonzero"/><path fill="#63012e" d="M 187.246094 177.554688 C 187.011719 177.035156 187.746094 176.144531 188.367188 175.914062 C 188.898438 175.710938 191.976562 180.246094 191.542969 180.390625 C 191.113281 180.53125 187.476562 178.078125 187.246094 177.554688 Z M 186.460938 182.53125 C 187.007812 183.054688 188.046875 181.683594 188.375 181.210938 C 188.972656 181.691406 189.550781 182.273438 189.941406 182.957031 L 190.269531 182.769531 C 189.042969 180.597656 186.109375 179.402344 185.988281 179.355469 L 185.847656 179.699219 C 185.851562 179.707031 186.199219 179.84375 186.675781 180.105469 C 186.46875 180.589844 185.921875 182.011719 186.460938 182.53125 Z M 185.710938 193.484375 C 186.03125 193.484375 186.363281 193.449219 186.699219 193.378906 L 186.625 193.011719 C 185.335938 193.28125 184.160156 192.992188 183.128906 192.136719 C 183.070312 192.085938 183.03125 192.054688 183 192.039062 L 182.820312 192.371094 C 182.835938 192.378906 182.859375 192.398438 182.898438 192.429688 C 183.75 193.132812 184.691406 193.484375 185.710938 193.484375 Z M 190.484375 201.433594 C 190.554688 201.425781 192.101562 201.3125 193.414062 200.855469 L 193.292969 200.503906 C 192.027344 200.945312 190.480469 201.058594 190.464844 201.066406 Z M 196.445312 193.183594 L 196.273438 192.847656 C 195.304688 193.34375 194.207031 193.148438 194.199219 193.148438 L 194.132812 193.515625 C 194.152344 193.515625 194.394531 193.558594 194.753906 193.558594 C 195.203125 193.566406 195.84375 193.5 196.445312 193.183594 Z M 197.714844 187.550781 L 197.507812 187.242188 C 196.644531 187.835938 196.003906 188.71875 195.695312 189.714844 L 196.054688 189.824219 C 196.332031 188.90625 196.921875 188.097656 197.714844 187.550781 Z M 158.394531 148.9375 C 158.484375 148.976562 160.691406 149.878906 161.722656 150.140625 L 161.8125 149.78125 C 160.804688 149.527344 158.558594 148.601562 158.527344 148.59375 Z M 161.605469 147.320312 L 161.796875 147 C 161.777344 146.984375 160.757812 146.363281 159.53125 145.546875 L 159.636719 145.53125 C 159.515625 144.703125 158.199219 141.582031 156.933594 140.316406 L 156.671875 140.578125 C 157.765625 141.664062 158.933594 144.28125 159.210938 145.324219 C 157.660156 144.28125 155.894531 142.996094 155.324219 142.203125 C 154.34375 140.839844 155.550781 139.925781 155.601562 139.890625 L 155.378906 139.589844 C 155.363281 139.605469 153.820312 140.757812 155.019531 142.425781 C 156.125 143.976562 161.378906 147.1875 161.605469 147.320312 Z M 159.808594 161.320312 C 159.816406 161.6875 159.890625 162.652344 160.5625 163.214844 C 160.878906 163.484375 161.28125 163.621094 161.761719 163.621094 C 161.992188 163.621094 162.234375 163.589844 162.503906 163.53125 L 162.417969 163.164062 C 161.722656 163.320312 161.183594 163.246094 160.8125 162.929688 C 160.242188 162.460938 160.191406 161.570312 160.191406 161.285156 C 160.683594 160.96875 163.09375 159.25 163.042969 156.203125 L 162.667969 156.210938 C 162.71875 159.105469 160.363281 160.730469 159.964844 160.984375 C 159.507812 160.886719 159.171875 160.671875 158.941406 160.339844 C 158.550781 159.765625 158.609375 158.996094 158.640625 158.726562 C 159.03125 158.589844 159.367188 158.417969 159.644531 158.222656 C 160.144531 157.871094 160.40625 157.4375 160.429688 157.003906 C 160.804688 156.953125 161.132812 156.832031 161.394531 156.621094 C 162.039062 156.121094 162.226562 155.195312 161.941406 153.863281 L 161.917969 153.757812 L 161.820312 153.71875 C 161.785156 153.703125 158.152344 152.460938 157.269531 151.878906 L 157.0625 152.191406 C 157.90625 152.753906 160.976562 153.824219 161.589844 154.035156 C 161.804688 155.15625 161.664062 155.925781 161.15625 156.316406 C 160.273438 157.003906 158.160156 156.609375 155.355469 155.238281 C 155.289062 155.207031 155.242188 155.1875 155.226562 155.179688 L 155.078125 155.523438 C 155.101562 155.53125 155.136719 155.550781 155.199219 155.582031 C 156.695312 156.316406 158.527344 157.042969 159.925781 157.042969 C 159.964844 157.042969 160.003906 157.035156 160.046875 157.035156 C 160.015625 157.339844 159.808594 157.648438 159.425781 157.917969 C 158.054688 158.882812 153.886719 159.652344 146.996094 156.414062 L 146.835938 156.75 C 150.445312 158.449219 153.558594 159.128906 155.902344 159.128906 C 156.804688 159.128906 157.59375 159.023438 158.25 158.84375 C 158.222656 159.242188 158.230469 159.96875 158.625 160.550781 C 158.894531 160.941406 159.300781 161.195312 159.808594 161.320312 Z M 236.695312 247.386719 C 235.78125 244.578125 234.6875 241.160156 233.722656 238.085938 L 240.308594 239.140625 L 240.371094 238.773438 L 233.597656 237.6875 C 232.316406 233.570312 231.296875 230.160156 231.335938 229.785156 L 231.15625 229.742188 L 230.984375 229.664062 C 230.753906 230.203125 234.652344 242.320312 236.335938 247.5 Z M 176.585938 232.546875 C 175.882812 229.21875 171.691406 224.261719 171.511719 224.054688 L 171.230469 224.292969 C 171.273438 224.34375 175.53125 229.382812 176.222656 232.621094 Z M 198.097656 332.558594 C 191.59375 328.945312 179.8125 318.410156 179.730469 317.324219 L 179.355469 317.355469 C 179.453125 318.746094 191.421875 329.28125 197.910156 332.886719 Z M 247.464844 317.332031 L 247.089844 317.347656 C 247.554688 332.8125 231.957031 337.542969 231.800781 337.589844 L 231.90625 337.945312 C 231.988281 337.925781 236.417969 336.578125 240.527344 333.023438 L 241.574219 336.351562 L 241.933594 336.242188 L 240.832031 332.753906 C 244.425781 329.535156 247.683594 324.597656 247.464844 317.332031 Z M 118.761719 26.109375 C 119.300781 26.316406 119.828125 25.070312 119.488281 24.460938 C 119.152344 23.855469 114.945312 22.957031 114.609375 23.4375 C 114.257812 23.929688 118.226562 25.898438 118.761719 26.109375 Z M 124.699219 27.777344 C 124.121094 27.726562 123.53125 28.886719 123.761719 29.15625 C 124.308594 29.78125 126.652344 30.664062 126.652344 30.664062 L 126.964844 30.042969 C 126.964844 30.042969 125.273438 27.828125 124.699219 27.777344 Z M 121.628906 31.300781 L 121.480469 31.644531 C 121.496094 31.652344 122.101562 31.914062 122.78125 32.371094 C 122.46875 32.777344 121.613281 33.964844 121.972656 34.511719 C 122.339844 35.058594 123.785156 34.078125 124.257812 33.742188 C 124.324219 33.847656 124.390625 33.945312 124.445312 34.054688 L 124.78125 33.882812 C 123.988281 32.335938 121.726562 31.339844 121.628906 31.300781 Z M 116.976562 36.054688 C 116.757812 36.136719 115.546875 35.640625 115.386719 35.457031 C 115.394531 35.460938 115.410156 35.492188 115.410156 35.53125 L 115.035156 35.53125 C 115.035156 35.605469 115.035156 35.808594 115.957031 36.179688 C 116.445312 36.375 116.742188 36.433594 116.921875 36.433594 C 117.125 36.433594 117.191406 36.367188 117.222656 36.332031 C 117.519531 36.023438 120.566406 31.019531 121.015625 29.902344 L 120.671875 29.761719 C 120.207031 30.90625 117.183594 35.820312 116.976562 36.054688 Z M 110.921875 36.570312 L 110.898438 36.53125 L 110.597656 36.765625 C 111.277344 37.894531 112.355469 38.589844 113.628906 38.71875 L 113.667969 38.34375 C 112.492188 38.230469 111.542969 37.617188 110.921875 36.570312 Z M 103.367188 36.683594 L 103.179688 36.683594 L 103 36.628906 C 102.890625 36.972656 104.609375 40.597656 108.578125 42.855469 L 108.765625 42.535156 C 104.949219 40.347656 103.40625 36.972656 103.367188 36.683594 Z M 116.71875 28.609375 C 116.816406 28.714844 116.90625 28.816406 116.980469 28.921875 L 117.289062 28.707031 C 116.152344 27.089844 112.976562 26.140625 112.707031 26.132812 L 112.695312 26.503906 C 112.886719 26.519531 114.019531 26.863281 115.117188 27.449219 C 114.820312 27.925781 113.988281 29.386719 114.640625 29.910156 C 115.304688 30.449219 116.398438 29.050781 116.71875 28.609375 Z M 93.113281 171.796875 L 93.464844 171.925781 L 96.363281 164.070312 L 96.011719 163.941406 Z M 137.191406 197.257812 L 137.511719 197.449219 L 142.886719 188.679688 L 142.5625 188.484375 Z M 137.796875 189.21875 L 137.421875 189.195312 L 137.160156 193.679688 L 137.535156 193.703125 Z M 39.496094 241.820312 L 43.222656 242.222656 L 43.261719 241.847656 L 39.535156 241.445312 Z M 54.421875 243.464844 L 58.148438 243.882812 L 58.191406 243.507812 L 54.464844 243.089844 Z M 46.957031 242.632812 L 50.6875 243.046875 L 50.722656 242.671875 L 46.996094 242.261719 Z M 61.875 244.304688 L 65.609375 244.722656 L 65.65625 244.347656 L 61.917969 243.929688 Z M 24.640625 240.300781 C 24.933594 240.300781 26.160156 240.410156 28.300781 240.621094 L 28.335938 240.246094 C 26.160156 240.03125 24.945312 239.917969 24.640625 239.917969 C 24.574219 239.917969 24.4375 239.917969 24.394531 240.050781 L 24.59375 240.128906 Z M 32.035156 241.019531 C 33.1875 241.136719 34.445312 241.273438 35.769531 241.414062 L 35.808594 241.039062 C 34.480469 240.898438 33.230469 240.761719 32.070312 240.644531 Z M 145.8125 210.75 L 149.554688 210.75 L 149.554688 210.375 L 145.8125 210.375 Z M 138.328125 210.75 L 142.070312 210.75 L 142.070312 210.375 L 138.328125 210.375 Z M 14.761719 292.816406 L 14.777344 293.191406 C 19.640625 293.011719 25.703125 292.792969 30.46875 295.5625 L 30.65625 295.242188 C 25.792969 292.417969 19.679688 292.636719 14.761719 292.816406 Z M 103.660156 19.132812 C 103.789062 19.636719 103.808594 20.167969 103.824219 20.691406 L 104.199219 20.675781 C 104.183594 20.136719 104.160156 19.582031 104.019531 19.039062 C 103.90625 18.601562 103.660156 17.996094 103.128906 17.59375 L 102.902344 17.890625 C 103.351562 18.238281 103.5625 18.761719 103.660156 19.132812 Z M 167.480469 352.039062 C 167.496094 352.039062 168.917969 352.164062 171.230469 352.234375 L 171.238281 351.859375 C 168.9375 351.792969 167.523438 351.664062 167.507812 351.664062 Z M 197.074219 348.722656 L 197.183594 349.074219 C 198.414062 348.679688 199.59375 348.238281 200.710938 347.765625 L 200.558594 347.421875 C 199.460938 347.886719 198.285156 348.328125 197.074219 348.722656 Z M 189.835938 350.535156 L 189.902344 350.902344 C 191.160156 350.667969 192.394531 350.398438 193.570312 350.105469 L 193.480469 349.75 C 192.3125 350.03125 191.085938 350.300781 189.835938 350.535156 Z M 174.980469 351.894531 L 174.980469 352.269531 C 176.230469 352.253906 177.484375 352.21875 178.726562 352.164062 L 178.714844 351.792969 C 177.476562 351.84375 176.222656 351.882812 174.980469 351.894531 Z M 208.867188 301.585938 C 208.125 300.359375 208.589844 297.417969 208.996094 294.820312 C 209.234375 293.316406 209.453125 291.902344 209.414062 290.976562 L 209.039062 290.992188 C 209.078125 291.875 208.859375 293.273438 208.628906 294.761719 C 208.210938 297.417969 207.738281 300.425781 208.546875 301.773438 C 208.589844 301.847656 208.628906 301.929688 208.671875 302.003906 L 206.179688 300.308594 L 205.972656 300.613281 L 208.933594 302.625 C 209.113281 303.21875 209.078125 303.757812 208.800781 304.152344 C 208.425781 304.699219 207.671875 304.925781 206.710938 304.765625 C 206.429688 304.722656 206.195312 304.765625 206.007812 304.894531 C 204.453125 303.226562 202.925781 301.535156 201.457031 299.796875 L 201.175781 300.039062 C 202.648438 301.773438 204.191406 303.480469 205.753906 305.15625 C 205.550781 305.484375 205.484375 305.957031 205.410156 306.449219 C 205.296875 307.214844 205.191406 308 204.617188 308.3125 C 204.0625 308.613281 203.105469 308.457031 201.75 307.835938 C 199.550781 307.042969 195.269531 305.042969 190.3125 302.738281 C 178.390625 297.1875 163.550781 290.273438 161.15625 292.066406 C 161.085938 292.121094 161.019531 292.195312 160.960938 292.277344 L 158.953125 289.039062 L 158.640625 289.230469 L 160.796875 292.710938 C 160.78125 292.824219 160.78125 292.945312 160.804688 293.085938 C 161.523438 297.746094 176.894531 336.855469 182.695312 351.492188 C 182.613281 351.5 182.53125 351.507812 182.449219 351.515625 L 182.476562 351.886719 C 182.597656 351.882812 182.71875 351.867188 182.835938 351.851562 C 183.953125 354.671875 184.695312 356.519531 184.84375 356.910156 L 185.1875 356.765625 C 185.148438 356.664062 184.410156 354.8125 183.21875 351.804688 C 184.230469 351.707031 185.230469 351.597656 186.207031 351.46875 L 186.152344 351.09375 C 185.15625 351.230469 184.117188 351.34375 183.078125 351.445312 C 177.492188 337.332031 162.675781 299.632812 161.253906 293.460938 L 163.519531 297.121094 L 163.835938 296.925781 L 161.183594 292.644531 C 161.230469 292.503906 161.304688 292.417969 161.371094 292.367188 C 163.585938 290.699219 178.9375 297.859375 190.148438 303.082031 C 195.113281 305.394531 199.398438 307.394531 201.601562 308.1875 C 203.082031 308.867188 204.121094 309.015625 204.789062 308.652344 C 205.523438 308.246094 205.65625 307.328125 205.769531 306.511719 C 205.828125 306.105469 205.890625 305.71875 206.007812 305.457031 C 208.15625 307.746094 210.363281 309.976562 212.640625 312.117188 L 212.894531 311.847656 C 210.621094 309.707031 208.410156 307.46875 206.261719 305.179688 C 206.367188 305.125 206.488281 305.109375 206.644531 305.132812 C 207.746094 305.3125 208.644531 305.027344 209.101562 304.355469 C 209.371094 303.957031 209.453125 303.464844 209.375 302.917969 L 214.285156 306.257812 L 214.496094 305.949219 L 209.25 302.386719 C 209.160156 302.132812 209.03125 301.863281 208.867188 301.585938 Z M 242.980469 331.863281 L 254.3125 366 L 254.664062 365.882812 L 243.332031 331.742188 Z M 240.382812 312.21875 L 240.300781 311.851562 C 233.484375 313.351562 223.695312 309.929688 223.597656 309.898438 L 223.46875 310.253906 C 223.550781 310.28125 230.207031 312.609375 236.417969 312.609375 C 237.792969 312.601562 239.140625 312.488281 240.382812 312.21875 Z M 264.4375 305.097656 L 264.167969 304.835938 C 260.773438 308.351562 253.46875 308.792969 253.390625 308.792969 L 253.414062 309.167969 C 253.722656 309.152344 260.9375 308.71875 264.4375 305.097656 Z M 249.457031 361.324219 L 250.578125 364.894531 L 250.9375 364.78125 L 249.816406 361.210938 Z M 244.957031 347.054688 L 246.082031 350.625 L 246.4375 350.511719 L 245.316406 346.941406 Z M 242.703125 339.914062 L 243.828125 343.484375 L 244.1875 343.371094 L 243.0625 339.804688 Z M 247.210938 354.191406 L 248.332031 357.761719 L 248.691406 357.652344 L 247.570312 354.082031 Z M 247.210938 354.191406 " fill-opacity="1" fill-rule="nonzero"/></svg>